<?xml version="1.0" encoding="utf-8"?>
<!-- Generator: Adobe Illustrator 16.0.4, SVG Export Plug-In . SVG Version: 6.00 Build 0)  -->
<!DOCTYPE svg PUBLIC "-//W3C//DTD SVG 1.1//EN" "http://www.w3.org/Graphics/SVG/1.1/DTD/svg11.dtd">
<svg version="1.1" id="Capa_1" xmlns="http://www.w3.org/2000/svg" xmlns:xlink="http://www.w3.org/1999/xlink" x="0px" y="0px"
	 width="512px" height="512px" viewBox="0 0 512 512" enable-background="new 0 0 512 512" xml:space="preserve">
<circle fill="none" stroke="#8C8C8C" stroke-width="12" stroke-miterlimit="10" cx="256" cy="256" r="239.5"/>
<g>
	<path id="LinkedIn" fill="#8C8C8C" d="M390.005,284.965v99.085h-57.443v-92.449c0-23.224-8.308-39.072-29.101-39.072
		c-15.873,0-25.318,10.68-29.475,21.013c-1.515,3.693-1.905,8.835-1.905,14.006v96.503h-57.462c0,0,0.774-156.578,0-172.8h57.457
		v24.493c-0.117,0.183-0.269,0.381-0.378,0.559h0.378v-0.559c7.634-11.757,21.267-28.553,51.782-28.553
		C361.663,207.189,390.005,231.887,390.005,284.965z M154.511,127.951c-19.658,0-32.516,12.894-32.516,29.85
		c0,16.586,12.486,29.872,31.753,29.872h0.384c20.039,0,32.501-13.283,32.501-29.872
		C186.255,140.845,174.171,127.951,154.511,127.951z M125.407,384.05h57.441v-172.8h-57.441V384.05z"/>
</g>
</svg>
