<?xml version="1.0" encoding="utf-8"?>
<!-- Generator: Adobe Illustrator 16.0.4, SVG Export Plug-In . SVG Version: 6.00 Build 0)  -->
<!DOCTYPE svg PUBLIC "-//W3C//DTD SVG 1.1//EN" "http://www.w3.org/Graphics/SVG/1.1/DTD/svg11.dtd">
<svg version="1.1" id="Capa_1" xmlns="http://www.w3.org/2000/svg" xmlns:xlink="http://www.w3.org/1999/xlink" x="0px" y="0px"
	 width="512px" height="512px" viewBox="0 0 512 512" enable-background="new 0 0 512 512" xml:space="preserve">
<circle fill="none" stroke="#8C8C8C" stroke-width="12" stroke-miterlimit="10" cx="256" cy="256" r="239.5"/>
<g>
	<path fill="#8C8C8C" d="M406.606,161.825c-11.083,4.915-22.992,8.236-35.493,9.73c12.759-7.648,22.558-19.759,27.172-34.189
		c-11.941,7.083-25.165,12.225-39.242,14.996c-11.272-12.01-27.334-19.514-45.108-19.514c-34.129,0-61.796,27.667-61.796,61.795
		c0,4.843,0.546,9.56,1.6,14.083c-51.358-2.578-96.894-27.18-127.373-64.568c-5.322,9.127-8.369,19.743-8.369,31.068
		c0,21.44,10.91,40.355,27.492,51.437c-10.131-0.321-19.659-3.101-27.99-7.729c-0.006,0.257-0.006,0.517-0.006,0.777
		c0,29.941,21.302,54.917,49.571,60.596c-5.185,1.411-10.645,2.169-16.281,2.169c-3.981,0-7.853-0.389-11.627-1.111
		c7.864,24.55,30.686,42.42,57.729,42.918c-21.149,16.575-47.796,26.453-76.75,26.453c-4.989,0-9.907-0.291-14.742-0.865
		c27.348,17.537,59.831,27.767,94.729,27.767c113.668,0,175.826-94.166,175.826-175.829c0-2.679-0.061-5.344-0.179-7.995
		C387.845,185.1,398.322,174.216,406.606,161.825z"/>
</g>
</svg>
