<?xml version="1.0" encoding="utf-8"?>
<!-- Generator: Adobe Illustrator 16.0.4, SVG Export Plug-In . SVG Version: 6.00 Build 0)  -->
<!DOCTYPE svg PUBLIC "-//W3C//DTD SVG 1.1//EN" "http://www.w3.org/Graphics/SVG/1.1/DTD/svg11.dtd">
<svg version="1.1" id="Layer_1" xmlns="http://www.w3.org/2000/svg" xmlns:xlink="http://www.w3.org/1999/xlink" x="0px" y="0px"
	 width="500px" height="500px" viewBox="0 0 500 500" enable-background="new 0 0 500 500" xml:space="preserve">
<rect x="-12.5" y="-12.5" fill="#77BDEE" width="525" height="525"/>
<g>
	<g>
		<path fill="#FFFFFF" d="M386.307,167.626l-54.393-51.192H113.693v229.564l154.439-0.011l75.131,37.579l-0.011-37.568h43.054
			V167.626z M336.075,140.067l29.339,27.606h-29.339V140.067z M371.951,331.654h-43.053l0.01,28.688l-57.387-28.71l-143.479,0.022
			V130.783h193.699v51.24h50.209V331.654z"/>
	</g>
</g>
<g>
	<g>
		<path fill="#FFFFFF" d="M336.075,267.09H163.909c-3.962,0-7.172,3.206-7.172,7.166c0,3.972,3.209,7.178,7.172,7.178h172.167
			c3.972,0,7.188-3.206,7.188-7.178C343.264,270.296,340.047,267.09,336.075,267.09z"/>
	</g>
</g>
<g>
	<g>
		<path fill="#FFFFFF" d="M336.075,224.041H163.909c-3.962,0-7.172,3.21-7.172,7.178c0,3.962,3.209,7.172,7.172,7.172h172.167
			c3.972,0,7.188-3.21,7.188-7.172C343.264,227.251,340.047,224.041,336.075,224.041z"/>
	</g>
</g>
<g>
	<g>
		<path fill="#FFFFFF" d="M257.172,180.998h-93.263c-3.962,0-7.172,3.209-7.172,7.177c0,3.962,3.209,7.172,7.172,7.172h93.263
			c3.962,0,7.172-3.21,7.172-7.172C264.344,184.209,261.134,180.998,257.172,180.998z"/>
	</g>
</g>
</svg>
