<?xml version="1.0" encoding="utf-8"?>
<!-- Generator: Adobe Illustrator 16.0.4, SVG Export Plug-In . SVG Version: 6.00 Build 0)  -->
<!DOCTYPE svg PUBLIC "-//W3C//DTD SVG 1.1//EN" "http://www.w3.org/Graphics/SVG/1.1/DTD/svg11.dtd">
<svg version="1.1" id="Capa_1" xmlns="http://www.w3.org/2000/svg" xmlns:xlink="http://www.w3.org/1999/xlink" x="0px" y="0px"
	 width="512px" height="512px" viewBox="0 0 512 512" enable-background="new 0 0 512 512" xml:space="preserve">
<circle fill="#8C8C8C" cx="256" cy="256" r="239.5"/>
<g>
	<g>
		<path fill="#FFFFFF" d="M222.188,296.969c-6.664,5.982-19.463,17.961-40.772,17.961c-25.132,0-49.344-22.029-49.344-57.277
			c0-45.163,28.943-59.729,51.163-59.729c32.053,0,39.071,19.339,47.809,46.145l11.663,36.721
			c11.651,35.614,33.507,64.244,96.521,64.244c45.169,0,75.763-13.945,75.763-50.66c0-29.744-16.761-45.163-48.083-52.511
			l-23.309-5.136c-16.027-3.672-20.762-10.283-20.762-21.302c0-12.483,9.833-19.822,25.863-19.822
			c17.482,0,26.955,6.609,28.416,22.396l36.418-4.405c-2.917-33.047-25.499-46.628-62.65-46.628
			c-32.779,0-64.832,12.484-64.832,52.504c0,24.968,12.018,40.752,42.242,48.102l24.776,5.869
			c18.575,4.41,24.76,12.121,24.76,22.771c0,13.58-13.11,19.087-37.876,19.087c-36.786,0-55.263-19.46-64.009-46.265l-12.022-36.712
			c-15.287-47.731-33.336-65.357-81.78-65.357c-43.198,0-85.133,34.145-85.133,92.153c0,55.812,40.262,85.915,82.582,85.915
			c30.605,0,46.152-10.756,53.739-16.271L222.188,296.969z"/>
	</g>
</g>
</svg>
