<?xml version="1.0" encoding="UTF-8" standalone="no"?><!DOCTYPE svg PUBLIC "-//W3C//DTD SVG 1.1//EN" "http://www.w3.org/Graphics/SVG/1.1/DTD/svg11.dtd"><svg width="256px" height="256px" version="1.1" xmlns="http://www.w3.org/2000/svg" xmlns:xlink="http://www.w3.org/1999/xlink" xml:space="preserve" xmlns:serif="http://www.serif.com/" style="fill-rule:evenodd;clip-rule:evenodd;stroke-linecap:round;stroke-linejoin:round;stroke-miterlimit:1.5;"><g id="Variants"></g><g id="Android"></g><g id="iOS"></g><rect id="Simplified-ICON" serif:id="Simplified ICON" x="0" y="0" width="256" height="256" style="fill:none;"/><path id="ICON" d="M199.178,0C230.539,0 256,25.461 256,56.822L256,199.178C256,230.539 230.539,256 199.178,256L56.822,256C25.461,256 0,230.539 0,199.178L0,56.822C0,25.461 25.461,0 56.822,0L199.178,0Z" style="fill:url(#_Linear1);"/><clipPath id="_clip2"><path d="M199.178,0C230.539,0 256,25.461 256,56.822L256,199.178C256,230.539 230.539,256 199.178,256L56.822,256C25.461,256 0,230.539 0,199.178L0,56.822C0,25.461 25.461,0 56.822,0L199.178,0Z"/></clipPath><g clip-path="url(#_clip2)"><rect x="-0" y="-0" width="256" height="256" style="fill:url(#_Linear3);"/><g id="Grid" opacity="0.15"><path d="M240,0L240,256" style="fill:none;stroke:#fff;stroke-width:1.5px;"/><path d="M224,0L224,256" style="fill:none;stroke:#fff;stroke-width:1.5px;"/><path d="M208,0L208,256" style="fill:none;stroke:#fff;stroke-width:1.5px;"/><path d="M176,0L176,256" style="fill:none;stroke:#fff;stroke-width:1.5px;"/><path d="M160,0L160,256" style="fill:none;stroke:#fff;stroke-width:1.5px;"/><path d="M144,0L144,256" style="fill:none;stroke:#fff;stroke-width:1.5px;"/><path d="M112,0L112,256" style="fill:none;stroke:#fff;stroke-width:1.5px;"/><path d="M96,0L96,256" style="fill:none;stroke:#fff;stroke-width:1.5px;"/><path d="M80,0L80,256" style="fill:none;stroke:#fff;stroke-width:1.5px;"/><path d="M48,0L48,256" style="fill:none;stroke:#fff;stroke-width:1.5px;"/><path d="M32,0L32,256" style="fill:none;stroke:#fff;stroke-width:1.5px;"/><path d="M16,0L16,256" style="fill:none;stroke:#fff;stroke-width:1.5px;"/><path d="M256,240L0,240" style="fill:none;stroke:#fff;stroke-width:1.5px;"/><path d="M256,224L0,224" style="fill:none;stroke:#fff;stroke-width:1.5px;"/><path d="M256,208L0,208" style="fill:none;stroke:#fff;stroke-width:1.5px;"/><path d="M256,192L0,192" style="fill:none;stroke:#fff;stroke-width:1.5px;"/><path d="M256,176L0,176" style="fill:none;stroke:#fff;stroke-width:1.5px;"/><path d="M256,160L0,160" style="fill:none;stroke:#fff;stroke-width:1.5px;"/><path d="M256,144L0,144" style="fill:none;stroke:#fff;stroke-width:1.5px;"/><path d="M256,128L0,128" style="fill:none;stroke:#fff;stroke-width:1.5px;"/><path d="M256,112L0,112" style="fill:none;stroke:#fff;stroke-width:1.5px;"/><path d="M256,96L0,96" style="fill:none;stroke:#fff;stroke-width:1.5px;"/><path d="M256,80L0,80" style="fill:none;stroke:#fff;stroke-width:1.5px;"/><path d="M256,64L0,64" style="fill:none;stroke:#fff;stroke-width:1.5px;"/><path d="M256,48L0,48" style="fill:none;stroke:#fff;stroke-width:1.5px;"/><path d="M256,32L0,32" style="fill:none;stroke:#fff;stroke-width:1.5px;"/><path d="M256,16L0,16" style="fill:none;stroke:#fff;stroke-width:1.5px;"/></g><g id="Continents"><path d="M243.907,212.289L245.703,210.494L245.703,207.8L242.112,207.8L242.112,212.289L243.907,212.289ZM256,195.708L247.499,204.209L238.52,204.209L238.52,196.128L234.929,192.537L227.746,192.537L225.053,195.23L218.768,195.23L218.768,181.763L224.155,176.376L226.849,176.376L234.929,168.296L236.725,170.091L240.316,166.5L245.703,166.5L245.703,172.785L247.499,174.58L251.09,170.989L251.09,169.193L252.886,167.398L254.681,169.193L254.681,176.376L256,177.695L256,195.708ZM256,156.147L253.784,153.93L251.09,153.93L251.09,162.909L252.886,162.909L254.681,161.113L256,161.113L256,156.147Z" style="fill:#b3fa6d;fill-rule:nonzero;"/><path d="M251.09,153.93L249.294,152.135L247.499,153.93L244.805,151.237L244.805,150.339L242.112,150.339L242.112,152.135L248.397,158.419L248.397,160.215L251.09,162.909L251.09,153.93ZM204.403,143.156L215.177,153.93L215.177,157.522L221.462,157.522L224.155,160.215L234.031,160.215L236.725,162.909L222.359,162.909L218.768,159.317L214.279,159.317L211.585,156.624L211.585,153.032L204.403,145.85L204.403,143.156ZM233.133,153.032L231.338,154.828L231.338,156.624L234.929,156.624L234.929,153.032L233.133,153.032ZM225.951,141.361L229.542,144.952L229.542,149.441L225.951,153.032L218.768,153.032L218.768,148.543L225.951,141.361ZM256,43.076L251.988,47.088L251.988,56.066L247.499,56.066L247.499,60.556L249.294,62.351L249.294,74.921L242.112,67.738L242.112,56.066L236.725,56.066L236.725,60.556L233.133,60.556L227.746,65.943L227.746,74.023L233.133,74.023L233.133,91.98L227.746,97.367L231.338,100.958L228.644,103.652L222.359,97.367L218.768,100.958L225.951,108.141L225.951,116.221L218.768,123.404L215.177,123.404L211.585,126.995L218.768,134.178L214.279,138.667L208.892,133.28L206.198,135.974L206.198,137.769L207.994,139.565L207.994,141.361L213.381,146.748L213.381,148.543L204.403,139.565L204.403,129.689L200.811,129.689L200.811,127.893L197.22,124.302L195.424,124.302L188.242,131.484L188.242,137.769L184.65,141.361L179.263,135.974L179.263,124.302L175.672,124.302L172.081,120.71L164,120.71L161.307,118.017L159.511,119.813L155.92,116.221L155.92,113.528L152.328,113.528L152.328,118.017L157.715,123.404L159.511,121.608L164.898,126.995L159.511,133.28L150.533,133.28L150.533,128.791L146.941,125.2L146.941,122.506L141.554,117.119L137.963,117.119L136.167,115.323L139.759,111.732L139.759,109.936L132.576,109.936L130.78,108.141L130.78,105.447L132.576,103.652L134.372,103.652L136.167,101.856L137.963,101.856L139.759,103.652L143.35,103.652L143.35,101.856L141.554,100.06L149.635,100.06L152.328,102.754L152.328,106.345L154.124,108.141L155.92,108.141L155.92,101.856L152.328,98.265L154.124,96.469L154.124,94.673L152.328,94.673L152.328,91.082L155.92,87.491L137.963,69.534L146.941,60.556L155.92,60.556L155.92,53.373L164.898,53.373L181.059,37.212L188.242,37.212L188.242,46.19L194.527,39.905L200.811,39.905L204.403,43.497L211.585,36.314L234.929,36.314L239.418,31.825L249.294,31.825L251.988,34.518L256,34.518L256,43.076ZM190.037,138.667L191.833,140.463L191.833,143.156L190.037,143.156L190.037,138.667ZM229.542,126.995L229.542,132.382L231.338,134.178L231.338,138.667L234.929,142.258L236.725,142.258L236.725,134.178L234.031,131.484L233.133,131.484L233.133,126.995L229.542,126.995ZM229.542,135.974L229.542,137.769L227.746,139.565L225.951,139.565L229.542,135.974ZM229.542,117.119L227.746,118.915L227.746,120.71L229.542,122.506L229.542,117.119ZM240.316,92.878L242.112,94.673L242.112,98.265L234.929,105.447L234.929,109.039L237.623,109.039L244.805,101.856L244.805,94.673L242.112,91.98L245.703,88.388L243.907,86.593L242.112,86.593L240.316,88.388L240.316,92.878Z" style="fill:#8fff9a;fill-rule:nonzero;"/><path d="M118.211,114.426L121.802,114.426L123.598,116.221L125.393,113.528L128.985,113.528L130.78,115.323L136.167,115.323L137.963,117.119L137.963,120.71L143.35,126.097L143.35,128.791L152.328,136.871L157.715,136.871L157.715,141.361L146.941,153.032L146.941,165.602L141.554,170.989L141.554,179.07L132.576,187.15L127.189,187.15L125.393,188.946L123.598,187.15L123.598,184.457L120.007,179.07L120.007,156.624L114.62,151.237L116.415,149.441L116.415,144.952L112.824,144.952L111.028,143.156L107.437,143.156L105.641,144.952L98.459,144.952L89.48,135.974L89.48,126.097L103.846,111.732L116.415,111.732L118.211,114.426ZM155.92,162.909L150.533,168.296L150.533,177.274L153.226,177.274L157.715,172.785L157.715,164.704L155.92,162.909Z" style="fill:#c6fb79;fill-rule:nonzero;"/><path d="M130.78,104.549L125.393,104.549L128.087,107.243L126.291,109.039L123.598,106.345L123.598,101.856L120.007,98.265L116.415,98.265L116.415,100.06L122.7,106.345L119.109,109.936L117.313,108.141L119.109,106.345L113.722,100.958L112.824,100.958L111.028,102.754L109.233,100.958L105.641,104.549L105.641,107.243L103.846,109.039L100.254,109.039L98.459,107.243L98.459,101.856L105.641,101.856L105.641,97.367L103.846,95.571L112.824,86.593L112.824,83.001L114.62,83.001L114.62,86.593L120.007,86.593L121.802,84.797L123.598,84.797L123.598,81.206L128.087,76.717L123.598,76.717L123.598,69.534L120.007,73.125L120.007,76.717L121.802,78.512L120.007,80.308L120.007,83.899L118.211,83.899L114.62,80.308L111.028,80.308L111.028,74.921L125.393,60.556L129.883,60.556L132.576,63.249L137.963,63.249L137.963,69.534L155.92,87.491L152.328,91.082L152.328,94.673L149.635,97.367L149.635,100.06L141.554,100.06L141.554,98.265L136.167,98.265L134.372,96.469L132.576,98.265L132.576,102.754L130.78,104.549ZM102.05,80.308L103.846,83.001L103.846,85.695L106.539,88.388L106.539,90.184L103.846,92.878L100.254,92.878L100.254,91.082L103.846,87.491L102.05,85.695L102.05,80.308ZM98.459,85.695L100.254,85.695L100.254,88.388L98.459,90.184L94.867,90.184L96.663,88.388L96.663,87.491L98.459,85.695ZM85.889,70.432L87.685,72.227L87.685,74.023L91.276,74.023L93.969,71.33L93.969,69.534L90.378,69.534L88.582,67.738L85.889,70.432ZM113.722,46.19L113.722,48.884L116.415,51.577L120.007,51.577L123.598,47.986L123.598,43.497L119.109,43.497L116.415,46.19L113.722,46.19Z" style="fill:#1bf9be;fill-rule:nonzero;"/><path d="M24.836,141.361L28.428,137.769L40.997,137.769L47.282,144.054L49.976,144.054L53.567,147.645L53.567,151.237L57.158,151.237L58.954,153.032L62.545,153.032L64.341,154.828L67.932,154.828L69.728,156.624L69.728,160.215L66.137,163.806L66.137,173.683L64.341,175.478L60.75,175.478L57.158,179.07L57.158,183.559L51.771,188.946L48.18,188.946L48.18,190.741L49.976,192.537L44.589,197.924L44.589,202.413L42.793,204.209L42.793,213.187L47.282,217.676L42.793,217.676L37.406,212.289L37.406,200.617L35.61,198.822L35.61,174.58L26.632,165.602L26.632,162.909L23.041,159.317L23.041,149.441L24.836,147.645L24.836,141.361Z" style="fill:#05dc89;fill-rule:nonzero;"/><path d="M0,47.088L10.471,47.088L20.347,56.964L26.632,56.964L32.019,51.577L35.61,51.577L42.793,58.76L42.793,62.351L34.712,62.351L24.836,72.227L24.836,75.819L29.325,80.308L39.202,80.308L39.202,70.432L45.486,70.432L51.771,76.717L51.771,85.695L58.954,92.878L56.26,95.571L49.976,89.286L48.18,89.286L46.384,91.082L50.873,95.571L48.18,98.265L40.099,98.265L33.815,104.549L33.815,108.141L26.632,115.323L26.632,120.71L23.041,120.71L23.041,115.323L21.245,113.528L13.164,113.528L6.88,119.813L6.88,124.302L10.471,127.893L13.164,127.893L15.858,125.2L17.654,125.2L17.654,131.484L21.245,131.484L21.245,137.769L23.041,139.565L24.836,137.769L26.632,139.565L24.836,141.361L21.245,141.361L14.96,135.076L12.267,135.076L8.675,131.484L4.186,131.484L0,127.298L0,47.088ZM66.137,72.227L71.524,77.614L75.115,74.023L75.115,70.432L79.604,65.943L85.889,65.943L91.276,60.556L91.276,52.475L98.459,45.292L91.276,38.11L66.137,38.11L58.954,45.292L58.954,48.884L63.443,48.884L67.932,53.373L67.932,62.351L66.137,64.147L66.137,72.227ZM44.589,65.045L51.771,72.227L55.363,68.636L55.363,58.76L45.486,48.884L39.202,48.884L39.202,51.577L47.282,59.658L49.976,59.658L49.976,65.045L44.589,65.045ZM21.245,54.271L17.654,50.679L17.654,47.986L14.062,44.395L14.062,41.701L21.245,34.518L24.836,34.518L24.836,39.905L35.61,39.905L35.61,49.782L32.019,49.782L28.428,46.19L28.428,51.577L24.836,54.271L21.245,54.271ZM48.18,45.292L42.793,45.292L37.406,39.905L37.406,42.599L39.202,44.395L39.202,45.292L40.997,47.088L46.384,47.088L48.18,45.292ZM40.997,36.314L40.997,39.008L44.589,42.599L50.873,42.599L53.567,39.905L58.056,39.905L62.545,35.416L59.852,32.723L44.589,32.723L40.997,36.314ZM26.632,33.621L34.712,33.621L37.406,36.314L37.406,38.11L35.61,38.11L33.815,36.314L26.632,36.314L26.632,33.621Z" style="fill:#6cfbac;fill-rule:nonzero;"/></g><g id="Shadow"><rect x="192" y="-0.039" width="64" height="256" style="fill:url(#_Linear4);"/><rect x="64" y="-0.039" width="64" height="256" style="fill:url(#_Linear5);"/><rect x="0" y="-0.039" width="64" height="256" style="fill:url(#_Linear6);"/><rect x="128" y="-0.039" width="64" height="256" style="fill:url(#_Linear7);"/></g><g id="Wave"><path d="M13.02,200.988C22.156,192.92 31.441,185.094 45.469,185.094C74.429,185.094 83.173,218.445 112.133,218.445C141.093,218.445 149.838,185.094 178.798,185.094C207.757,185.094 216.502,218.445 245.462,218.445C249.299,218.445 252.782,217.86 256,216.845L256,256L0,256L0,211.581C3.966,208.927 7.62,205.759 11.253,202.551L13.02,200.988Z" style="fill:#fff;fill-opacity:0.5;fill-rule:nonzero;"/><path d="M205.996,202.788C214.716,196.373 223.556,190.151 236.205,190.151C243.947,190.151 250.263,192.482 256,195.764L256,256L0,256L0,192.242C17.78,198.502 28.273,216.668 49.886,216.668C75.999,216.668 85.88,190.151 111.992,190.151C138.105,190.151 147.986,216.668 174.099,216.668C186.748,216.668 195.588,210.446 204.308,204.031L205.996,202.788Z" style="fill:#fff;fill-opacity:0.5;fill-rule:nonzero;"/><path d="M0,232.099C42.823,222.88 66.133,172.339 113.305,172.339C165.21,172.339 188.225,233.533 240.13,233.533C245.731,233.533 250.995,232.82 256,231.547L256,256L0,256L0,232.099Z" style="fill:#fff;fill-opacity:0.5;fill-rule:nonzero;"/></g></g><defs><linearGradient id="_Linear1" x1="0" y1="0" x2="1" y2="0" gradientUnits="userSpaceOnUse" gradientTransform="matrix(3.34953e-14,-589.222,547.02,3.60794e-14,5194.56,1391.5)"><stop offset="0" style="stop-color:#008cf9;stop-opacity:1"/><stop offset="1" style="stop-color:#4baffb;stop-opacity:1"/></linearGradient><linearGradient id="_Linear3" x1="0" y1="0" x2="1" y2="0" gradientUnits="userSpaceOnUse" gradientTransform="matrix(134.5,-301.5,301.5,134.5,54.25,252)"><stop offset="0" style="stop-color:#0071ff;stop-opacity:1"/><stop offset="1" style="stop-color:#00d9e6;stop-opacity:1"/></linearGradient><linearGradient id="_Linear4" x1="0" y1="0" x2="1" y2="0" gradientUnits="userSpaceOnUse" gradientTransform="matrix(64,0,0,64,192,111.961)"><stop offset="0" style="stop-color:#000;stop-opacity:0.02"/><stop offset="1" style="stop-color:#000;stop-opacity:0.06"/></linearGradient><linearGradient id="_Linear5" x1="0" y1="0" x2="1" y2="0" gradientUnits="userSpaceOnUse" gradientTransform="matrix(64,0,0,64,64,111.961)"><stop offset="0" style="stop-color:#000;stop-opacity:0.02"/><stop offset="1" style="stop-color:#000;stop-opacity:0.06"/></linearGradient><linearGradient id="_Linear6" x1="0" y1="0" x2="1" y2="0" gradientUnits="userSpaceOnUse" gradientTransform="matrix(64,0,0,64,4.5427e-07,111.961)"><stop offset="0" style="stop-color:#fff;stop-opacity:0.02"/><stop offset="1" style="stop-color:#fff;stop-opacity:0.2"/></linearGradient><linearGradient id="_Linear7" x1="0" y1="0" x2="1" y2="0" gradientUnits="userSpaceOnUse" gradientTransform="matrix(64,0,0,64,128,111.961)"><stop offset="0" style="stop-color:#fff;stop-opacity:0.02"/><stop offset="1" style="stop-color:#fff;stop-opacity:0.2"/></linearGradient></defs></svg>