<?xml version="1.0" encoding="utf-8"?>
<!-- Generator: Adobe Illustrator 16.0.4, SVG Export Plug-In . SVG Version: 6.00 Build 0)  -->
<!DOCTYPE svg PUBLIC "-//W3C//DTD SVG 1.1//EN" "http://www.w3.org/Graphics/SVG/1.1/DTD/svg11.dtd">
<svg version="1.1" id="Capa_1" xmlns="http://www.w3.org/2000/svg" xmlns:xlink="http://www.w3.org/1999/xlink" x="0px" y="0px"
	 width="512px" height="512px" viewBox="0 0 512 512" enable-background="new 0 0 512 512" xml:space="preserve">
<circle fill="none" stroke="#8C8C8C" stroke-width="12" stroke-miterlimit="10" cx="256" cy="256" r="239.5"/>
<g>
	<g>
		<path fill="#8C8C8C" d="M256,298.711l-36.988-32.373l-105.753,90.654c3.844,3.565,9.033,5.787,14.757,5.787h255.969
			c5.703,0,10.871-2.222,14.693-5.787l-105.689-90.654L256,298.711z"/>
		<path fill="#8C8C8C" d="M398.742,155.01c-3.846-3.588-9.012-5.788-14.758-5.788H128.016c-5.703,0-10.87,2.222-14.714,5.83
			L256,277.355L398.742,155.01z"/>
		<polygon fill="#8C8C8C" points="106.51,167.972 106.51,345.396 209.723,257.688 		"/>
		<polygon fill="#8C8C8C" points="302.277,257.688 405.49,345.396 405.49,167.908 		"/>
	</g>
</g>
</svg>
