<svg width="750px" height="750px" viewBox="0 0 750 750">
	<circle fill="#69C9F6" cx="375" cy="375" r="368.071"/>
	
	<path fill="#FFBEA1" d="M217.665,515.44c0,0-49.101,10.031-44.877-43.558c0.396-23.231-2.64-17.556-4.224-48.046 c0,0-4.224-46.197,3.432-48.837c0,0,5.016-5.28,16.631-4.224c11.616,1.056,29.039,42.237,29.039,42.237l8.976,95.035L217.665,515.44 z"/>
	
	<path fill="#FFBEA1" d="M541.839,498.545c0,0,40.653,16.367,44.349-22.967c3.696-39.334-0.791-37.485,1.584-62.301 c2.376-24.814,5.544-44.349-5.016-48.573c-10.559-4.224-19.535-7.656-36.693,2.112C528.903,376.584,541.839,498.545,541.839,498.545 z"/>

	<path fill="#FFC2A4" d="M206.154,412.052c0,0,1.584,213.815,118.787,250.244c117.203,36.429,172.638-38.012,172.638-38.012 s39.595-25.342,50.682-118.787s11.087-142.544,11.087-142.544l-19.007-153.631l-49.098-52.267l-185.308-31.677l-79.191,55.435 L196.65,279.01L206.154,412.052z"/>

	<path fill="#7D583E" d="M206.154,412.052L181.763,375l-21.119-69.164c0,0-26.083-96.618,6.758-119.321 c10.465-7.482,11.085-12.671,11.085-12.671s23.338-82.892,73.496-90.283s211.188-80.779,277.712,2.64 c41.709,49.101-4.752,82.363-4.752,82.363S572.461,161.7,598.331,224c17.423,62.301-44.085,178.982-43.293,178.454 c0.792-0.527-21.119-208.02-51.214-208.02c-14.783-23.231-179.509-30.095-248.673-1.056c-44.877,30.622-39.07,126.185-39.07,126.185 S214.178,406.338,206.154,412.052z"/>

	<path fill="#84614F" d="M348.562,73.637c0,0,0.521,0.053,1.497,0.152c0.975,0.111,2.408,0.278,4.217,0.583 c1.809,0.302,4.006,0.692,6.5,1.269c2.498,0.56,5.304,1.26,8.324,2.18c1.518,0.437,3.073,0.975,4.699,1.489 c1.601,0.583,3.271,1.155,4.949,1.845c3.379,1.322,6.889,2.878,10.413,4.717c3.504,1.869,7.106,3.886,10.515,6.338 c3.476,2.353,6.727,5.148,9.882,8.042l2.225,2.323l1.108,1.162c0.356,0.399,0.688,0.821,1.032,1.23 c0.683,0.825,1.362,1.647,2.041,2.468c0.661,0.834,1.242,1.729,1.862,2.586c2.511,3.419,4.354,7.197,6.006,10.865 c0.4,0.924,0.697,1.883,1.044,2.809c0.331,0.932,0.678,1.85,0.961,2.774c0.455,1.884,0.942,3.714,1.331,5.509 c0.269,1.816,0.529,3.583,0.782,5.291c0.083,1.719,0.163,3.38,0.239,4.975c0.018,0.397,0.034,0.791,0.05,1.18 c-0.017,0.39-0.033,0.774-0.05,1.155c-0.036,0.76-0.071,1.502-0.105,2.226c-0.097,1.444-0.1,2.815-0.332,4.086 c-0.184,1.271-0.355,2.461-0.515,3.561c-0.084,0.548-0.164,1.073-0.241,1.575c-0.086,0.5-0.221,0.969-0.319,1.417 c-0.853,3.58-1.383,5.594-1.383,5.594s0.189-2.097,0.596-5.71c0.044-0.453,0.12-0.925,0.146-1.427 c0.016-0.502,0.032-1.028,0.049-1.576c0.043-1.091,0.09-2.271,0.14-3.533c0.105-1.256-0.028-2.598-0.073-4.005 c-0.026-0.703-0.053-1.423-0.079-2.161c-0.013-0.368-0.025-0.741-0.037-1.118c-0.046-0.374-0.092-0.752-0.139-1.135 c-0.192-1.523-0.393-3.11-0.6-4.752c-0.338-1.614-0.687-3.282-1.045-4.997c-0.467-1.685-1.027-3.391-1.551-5.142 c-0.692-1.694-1.34-3.446-2.096-5.184c-0.429-0.846-0.86-1.699-1.296-2.558c-0.431-0.861-0.853-1.733-1.398-2.545 c-1.04-1.652-2.019-3.364-3.238-4.944c-0.593-0.799-1.144-1.634-1.775-2.413c-0.649-0.766-1.3-1.534-1.951-2.303 c-0.329-0.382-0.645-0.777-0.984-1.15l-1.062-1.086l-2.123-2.177c-2.966-2.773-6.024-5.475-9.335-7.767 c-1.605-1.21-3.306-2.264-4.938-3.377c-1.673-1.051-3.344-2.07-5.018-3.019c-1.689-0.925-3.345-1.848-5.008-2.677 c-1.643-0.87-3.289-1.646-4.897-2.393c-3.224-1.478-6.321-2.786-9.22-3.907c-1.451-0.556-2.847-1.078-4.184-1.55 c-1.33-0.496-2.606-0.923-3.807-1.326c-2.405-0.792-4.517-1.456-6.268-1.964c-1.753-0.496-3.132-0.905-4.082-1.142 C349.069,73.764,348.562,73.637,348.562,73.637z"/>
	
	<path fill="#84614F" d="M470.347,153.185c0,0,0.06-0.492,0.129-1.416c0.085-0.923,0.139-2.283,0.234-4.003 c0.064-1.725,0.122-3.815,0.113-6.209c0.009-2.394-0.108-5.091-0.258-8.019c-0.123-1.463-0.195-2.988-0.391-4.556 c-0.081-0.784-0.164-1.582-0.248-2.392c-0.108-0.806-0.218-1.624-0.329-2.454c-0.196-1.662-0.555-3.344-0.839-5.071 c-0.411-1.704-0.669-3.477-1.163-5.224c-0.798-3.546-2.082-7.065-3.368-10.624c-0.371-0.87-0.744-1.743-1.118-2.619l-0.562-1.314 l-0.646-1.277l-1.293-2.561l-1.466-2.466l-0.72-1.241c-0.251-0.406-0.533-0.792-0.799-1.188l-1.61-2.364 c-0.552-0.774-1.178-1.49-1.761-2.236c-0.609-0.723-1.141-1.512-1.816-2.168c-0.646-0.683-1.289-1.364-1.93-2.041 c-0.609-0.708-1.298-1.33-1.983-1.948c-0.681-0.624-1.356-1.244-2.028-1.86c-0.672-0.617-1.427-1.124-2.127-1.687 c-0.713-0.549-1.419-1.094-2.119-1.634c-0.74-0.484-1.474-0.964-2.199-1.439c-0.726-0.479-1.443-0.952-2.152-1.42 c-0.733-0.427-1.481-0.812-2.208-1.213c-1.46-0.79-2.862-1.603-4.315-2.197c-1.433-0.636-2.799-1.308-4.151-1.856 c-1.375-0.5-2.692-0.979-3.944-1.435c-0.629-0.225-1.23-0.487-1.838-0.665c-0.608-0.177-1.2-0.349-1.772-0.515 c-2.3-0.636-4.284-1.339-5.978-1.654c-3.36-0.765-5.292-1.252-5.292-1.252s1.968,0.139,5.433,0.469 c1.743,0.104,3.812,0.531,6.206,0.952c2.418,0.337,5.04,1.173,7.952,1.936c2.835,0.986,5.97,1.975,9.063,3.561 c0.783,0.374,1.589,0.732,2.384,1.134c0.773,0.446,1.557,0.897,2.348,1.354c0.792,0.458,1.598,0.915,2.391,1.41 c0.761,0.543,1.529,1.092,2.304,1.646c0.765,0.568,1.582,1.083,2.319,1.71c0.738,0.629,1.481,1.262,2.229,1.899 c1.553,1.216,2.86,2.73,4.273,4.155c0.728,0.697,1.309,1.526,1.968,2.292c0.632,0.788,1.309,1.548,1.907,2.367l1.749,2.5 c0.287,0.42,0.593,0.83,0.865,1.26l0.779,1.313l1.527,2.644l1.34,2.731l0.667,1.362l0.578,1.396 c0.383,0.929,0.766,1.856,1.146,2.779c0.632,1.889,1.358,3.737,1.821,5.632c0.255,0.94,0.509,1.875,0.76,2.803 c0.205,0.938,0.409,1.869,0.611,2.792c0.213,0.92,0.396,1.838,0.535,2.754c0.148,0.914,0.296,1.82,0.441,2.715 c0.19,1.803,0.455,3.558,0.558,5.278c0.323,3.431,0.328,6.688,0.297,9.681c-0.067,2.995-0.242,5.731-0.507,8.144 c-0.224,2.415-0.568,4.504-0.848,6.218C470.89,151.275,470.347,153.185,470.347,153.185z"/>

	<path fill="#84614F" d="M505.546,137.697c0,0,0.049-0.434,0.091-1.25c0.05-0.814,0.074-2.011,0.085-3.527 c0.02-1.516-0.054-3.356-0.16-5.453c-0.123-2.099-0.377-4.454-0.703-7.004c-0.212-1.27-0.377-2.598-0.672-3.951 c-0.132-0.678-0.266-1.368-0.401-2.068c-0.16-0.694-0.323-1.399-0.488-2.114c-0.69-2.849-1.576-5.807-2.677-8.792 c-1.044-3.009-2.479-5.968-3.967-8.942c-0.813-1.452-1.563-2.955-2.497-4.357l-1.351-2.137l-1.474-2.061 c-0.926-1.416-2.045-2.688-3.069-4.025c-1.059-1.309-2.23-2.516-3.328-3.77c-1.185-1.175-2.36-2.34-3.521-3.492 c-1.229-1.084-2.443-2.156-3.638-3.21c-1.254-0.985-2.506-1.933-3.701-2.905c-1.258-0.891-2.489-1.763-3.688-2.611 c-1.182-0.88-2.456-1.545-3.613-2.311c-0.587-0.373-1.163-0.739-1.729-1.099c-0.566-0.358-1.156-0.653-1.716-0.974 c-1.129-0.629-2.211-1.233-3.24-1.807c-1.025-0.587-2.049-1.042-2.986-1.526c-1.889-0.937-3.523-1.801-4.926-2.384 c-2.773-1.243-4.355-2.003-4.355-2.003s1.688,0.426,4.636,1.258c1.487,0.382,3.243,0.988,5.251,1.723 c1,0.374,2.093,0.712,3.198,1.181c1.102,0.48,2.26,0.986,3.469,1.513c0.601,0.273,1.231,0.519,1.844,0.831 c0.613,0.313,1.237,0.631,1.872,0.956c0.633,0.331,1.276,0.667,1.93,1.009c0.657,0.335,1.313,0.696,1.955,1.104 c1.296,0.793,2.642,1.591,3.995,2.444c1.319,0.905,2.638,1.877,3.995,2.842c1.307,1.033,2.609,2.12,3.943,3.204 c1.28,1.146,2.545,2.346,3.803,3.571c1.178,1.304,2.428,2.563,3.566,3.931c1.104,1.397,2.306,2.728,3.302,4.217l1.529,2.203 c0.481,0.753,0.935,1.523,1.4,2.281c0.966,1.499,1.743,3.098,2.58,4.645c1.561,3.153,2.86,6.371,3.854,9.561 c1.062,3.169,1.745,6.332,2.268,9.333c0.559,3,0.769,5.878,0.924,8.52c0.234,5.298-0.156,9.697-0.624,12.729 c-0.212,1.519-0.483,2.697-0.661,3.497C505.669,137.278,505.546,137.697,505.546,137.697z"/>

	<path fill="#84614F" d="M396.432,153.185c0,0,0.03-0.414,0.008-1.185c-0.011-0.771-0.123-1.898-0.318-3.311 c-0.204-1.412-0.553-3.109-1.101-5.004c-0.562-1.892-1.297-3.988-2.3-6.184c-1.023-2.186-2.254-4.488-3.749-6.805 c-1.525-2.296-3.24-4.645-5.22-6.913c-0.94-1.172-2.046-2.244-3.09-3.384c-0.538-0.557-1.117-1.083-1.679-1.63 c-0.572-0.537-1.098-1.123-1.705-1.636c-2.343-2.131-4.808-4.214-7.423-6.115l-1.932-1.461c-0.648-0.482-1.327-0.923-1.986-1.386 c-1.324-0.921-2.646-1.835-4.015-2.66c-2.691-1.717-5.399-3.33-8.053-4.839c-2.694-1.438-5.268-2.897-7.794-4.129 c-2.493-1.297-4.913-2.404-7.126-3.482c-1.103-0.549-2.183-1.021-3.208-1.478c-1.023-0.465-1.994-0.907-2.906-1.322 c-1.82-0.844-3.432-1.526-4.757-2.1c-2.648-1.149-4.153-1.852-4.153-1.852s1.611,0.371,4.415,1.101 c1.4,0.37,3.115,0.785,5.031,1.417c1.919,0.62,4.127,1.22,6.45,2.109c2.337,0.854,4.894,1.733,7.505,2.896 c1.311,0.568,2.684,1.096,4.042,1.739c1.367,0.625,2.74,1.315,4.15,1.989c2.767,1.453,5.667,2.903,8.448,4.674 c1.422,0.832,2.804,1.756,4.189,2.691c0.69,0.469,1.398,0.916,2.078,1.407l2.028,1.494c2.688,2.015,5.236,4.227,7.659,6.495 c1.21,1.136,2.338,2.345,3.448,3.535c1.053,1.249,2.156,2.42,3.101,3.701c2.01,2.455,3.623,5.091,5.058,7.617 c1.429,2.539,2.483,5.097,3.32,7.487c0.846,2.392,1.332,4.675,1.66,6.697c0.341,2.023,0.411,3.814,0.402,5.277 c-0.001,1.464-0.137,2.608-0.255,3.378C396.536,152.784,396.432,153.185,396.432,153.185z"/>

	<path fill="#84614F" d="M257.047,107.075c0,0,0.443-0.048,1.274-0.137c0.833-0.077,2.056-0.195,3.617-0.257 c1.56-0.061,3.46-0.13,5.639-0.084c2.179,0.025,4.641,0.108,7.317,0.334c2.68,0.197,5.578,0.519,8.627,0.989 c3.046,0.484,6.261,1.04,9.533,1.867c0.819,0.202,1.645,0.406,2.478,0.612c0.826,0.23,1.658,0.462,2.496,0.695 c1.684,0.436,3.347,1.024,5.035,1.573c3.347,1.191,6.722,2.49,10.001,4.021l2.446,1.174l2.391,1.275 c1.605,0.822,3.136,1.767,4.666,2.683c3.062,1.832,5.874,3.953,8.549,6.041c1.31,1.081,2.573,2.176,3.795,3.258 c1.181,1.13,2.302,2.271,3.408,3.36c1.07,1.127,2.06,2.272,3.027,3.364c0.977,1.084,1.772,2.26,2.613,3.316 c0.408,0.539,0.819,1.056,1.197,1.58c0.357,0.539,0.706,1.065,1.046,1.579c0.664,1.037,1.32,1.998,1.884,2.934 c1.065,1.915,2.014,3.562,2.694,4.972c1.309,2.848,2.005,4.479,2.005,4.479s-1.012-1.48-2.692-4.079 c-0.86-1.287-2.038-2.762-3.272-4.511c-0.656-0.848-1.408-1.711-2.168-2.64c-0.378-0.464-0.767-0.94-1.165-1.428 c-0.413-0.474-0.86-0.939-1.302-1.425c-1.74-1.969-3.788-3.94-5.955-6.006c-1.136-0.979-2.283-2.002-3.486-3.011 c-1.257-0.945-2.48-1.981-3.786-2.958c-1.343-0.927-2.664-1.928-4.076-2.833c-0.709-0.447-1.423-0.897-2.141-1.349 c-0.704-0.473-1.427-0.922-2.176-1.339c-1.48-0.859-2.959-1.747-4.514-2.517l-2.312-1.195l-2.367-1.103 c-3.135-1.516-6.377-2.812-9.599-4.007c-3.248-1.12-6.44-2.265-9.613-3.119c-3.158-0.896-6.242-1.677-9.188-2.34 c-2.953-0.626-5.755-1.206-8.362-1.645c-2.607-0.438-5.008-0.807-7.145-1.084c-2.137-0.274-4.007-0.49-5.551-0.644 c-1.544-0.138-2.762-0.267-3.593-0.318C257.492,107.103,257.047,107.075,257.047,107.075z"/>

	<path fill="#84614F" d="M242.264,119.746c0,0,0.768,0.831,2.066,2.308c1.299,1.477,3.143,3.589,5.304,6.153 c1.086,1.277,2.266,2.658,3.484,4.137c1.23,1.468,2.527,3.017,3.869,4.618c1.334,1.603,2.713,3.259,4.115,4.941 c1.406,1.673,2.834,3.374,4.263,5.074c1.42,1.705,2.871,3.382,4.292,5.036c1.429,1.648,2.84,3.261,4.221,4.809 c1.389,1.541,2.728,3.03,4.027,4.417c1.318,1.365,2.563,2.656,3.737,3.828c1.197,1.142,2.296,2.191,3.305,3.087 c1.028,0.863,1.91,1.658,2.693,2.23c0.765,0.605,1.392,1.048,1.831,1.339c0.433,0.306,0.664,0.469,0.664,0.469 s-0.267-0.091-0.767-0.263c-0.499-0.178-1.249-0.421-2.138-0.863c-0.917-0.398-1.981-0.972-3.183-1.673 c-0.59-0.367-1.218-0.757-1.88-1.168c-0.638-0.446-1.308-0.915-2.007-1.404c-0.681-0.514-1.391-1.049-2.125-1.603 c-0.707-0.586-1.437-1.192-2.187-1.814c-1.473-1.275-3.014-2.638-4.528-4.123c-1.516-1.482-3.056-3.041-4.555-4.681 c-1.516-1.625-2.997-3.326-4.455-5.043c-2.902-3.447-5.66-7.006-8.119-10.43c-1.237-1.706-2.377-3.396-3.453-5 c-1.091-1.593-2.061-3.143-2.951-4.574c-1.792-2.856-3.169-5.312-4.105-7.047C242.745,120.771,242.264,119.746,242.264,119.746z"/>

	<path fill="#84614F" d="M218.33,131.872c0,0,0.444,0.915,1.221,2.514c0.772,1.595,1.895,3.855,3.243,6.544 c2.74,5.355,6.454,12.414,10.881,18.919c1.11,1.621,2.253,3.218,3.445,4.728c1.177,1.526,2.408,2.958,3.644,4.302 c1.235,1.346,2.501,2.567,3.745,3.686c0.622,0.559,1.269,1.045,1.867,1.563c0.614,0.491,1.239,0.922,1.827,1.364 c1.22,0.798,2.351,1.549,3.421,2.091c1.046,0.607,2.03,0.979,2.824,1.364c0.808,0.335,1.467,0.551,1.913,0.725 c0.448,0.171,0.688,0.263,0.688,0.263s-0.254-0.013-0.731-0.038c-0.473-0.048-1.192-0.037-2.08-0.183 c-0.876-0.182-1.994-0.295-3.188-0.713c-1.231-0.328-2.568-0.857-3.994-1.521c-0.693-0.362-1.437-0.717-2.175-1.134 c-0.718-0.444-1.474-0.898-2.218-1.405c-1.471-1.037-2.972-2.212-4.402-3.551c-0.714-0.669-1.442-1.353-2.118-2.096 c-0.345-0.366-0.692-0.734-1.042-1.104c-0.328-0.387-0.658-0.775-0.989-1.165c-1.34-1.55-2.554-3.232-3.741-4.927 c-1.146-1.721-2.245-3.468-3.223-5.243c-0.495-0.884-0.976-1.766-1.414-2.655c-0.456-0.88-0.882-1.76-1.28-2.636 c-1.621-3.487-2.871-6.846-3.775-9.773c-0.933-2.917-1.521-5.402-1.875-7.152C218.445,132.889,218.33,131.872,218.33,131.872z"/>
</svg>
