<?xml version="1.0" encoding="utf-8"?>
<!-- Generator: Adobe Illustrator 16.0.4, SVG Export Plug-In . SVG Version: 6.00 Build 0)  -->
<!DOCTYPE svg PUBLIC "-//W3C//DTD SVG 1.1//EN" "http://www.w3.org/Graphics/SVG/1.1/DTD/svg11.dtd">
<svg version="1.1" id="Capa_1" xmlns="http://www.w3.org/2000/svg" xmlns:xlink="http://www.w3.org/1999/xlink" x="0px" y="0px"
	 width="512px" height="512px" viewBox="0 0 512 512" enable-background="new 0 0 512 512" xml:space="preserve">
<circle fill="none" stroke="#8C8C8C" stroke-width="20" stroke-miterlimit="10" cx="256" cy="256" r="239.5"/>
<g id="XMLID_122_">
	<g>
		<path fill="#8C8C8C" d="M373.573,231.878c1.11-7.021,1.803-14.719,1.977-23.351c-0.066-37.014-17.785-50.111-21.194-56.251
			c5.021-28.044-0.831-40.801-3.554-45.168c-10.04-3.563-34.929,9.198-48.528,18.181c-22.173-6.491-69.031-5.857-86.603,1.68
			c-32.422-23.216-49.57-19.676-49.57-19.676s-11.086,19.879-2.931,48.962c-10.667,13.594-18.619,23.205-18.619,48.698
			c0,6.106,0.379,11.875,1.023,17.425c9.187,48.304,47.462,69.144,85.059,72.737c-5.657,4.299-12.45,12.434-13.39,21.861
			c-7.108,4.596-21.408,6.115-32.528,2.619c-15.58-4.924-21.545-35.777-44.877-31.375c-5.048,0.945-4.045,4.273,0.327,7.113
			c7.108,4.609,13.803,10.342,18.963,22.605c3.963,9.416,12.299,26.229,38.655,26.229c10.462,0,17.791-1.236,17.791-1.236
			s0.2,23.994,0.2,33.352c0,10.77-14.534,13.793-14.534,18.959c0,2.057,4.811,2.25,8.677,2.25c7.64,0,23.536-6.363,23.536-17.557
			c0-8.895,0.142-38.785,0.142-44.02c0-11.438,6.13-15.078,6.13-15.078s0.75,61.055-1.476,69.24
			c-2.609,9.625-7.336,8.258-7.336,12.541c0,6.395,19.11,1.564,25.449-12.43c4.904-10.93,2.707-70.803,2.707-70.803l5.113-0.111
			c0,0,0.059,27.422-0.117,39.947c-0.186,12.977-1.523,29.379,6.184,37.121c5.059,5.092,20.555,14.027,20.555,5.861
			c0-4.732-10.852-8.641-10.852-21.461v-59.057c6.593,0,7.955,19.412,7.955,19.412l2.377,36.064c0,0-1.578,13.16,14.217,18.652
			c5.575,1.953,17.504,2.484,18.062-0.793c0.561-3.287-14.362-8.146-14.504-18.332c-0.078-6.203,0.277-9.834,0.277-36.818
			c0-26.969-3.623-36.945-16.247-44.896C328.697,291.219,366.724,274.869,373.573,231.878z"/>
	</g>
</g>
</svg>
