<?xml version="1.0" encoding="utf-8"?>
<!-- Generator: Adobe Illustrator 16.0.4, SVG Export Plug-In . SVG Version: 6.00 Build 0)  -->
<!DOCTYPE svg PUBLIC "-//W3C//DTD SVG 1.1//EN" "http://www.w3.org/Graphics/SVG/1.1/DTD/svg11.dtd">
<svg version="1.1" id="Capa_1" xmlns="http://www.w3.org/2000/svg" xmlns:xlink="http://www.w3.org/1999/xlink" x="0px" y="0px"
	 width="512px" height="512px" viewBox="0 0 512 512" enable-background="new 0 0 512 512" xml:space="preserve">
<g>
	<g>
		<g>
			<path fill="#8C8C8C" d="M256,105.5c-83.113,0-150.5,67.386-150.5,150.5c0,83.113,67.387,150.5,150.5,150.5
				S406.5,339.113,406.5,256C406.5,172.886,339.113,105.5,256,105.5z M325.512,344.212c-1.881,3.442-5.398,5.361-9.049,5.361
				c-1.692,0-3.386-0.395-4.984-1.26c-24.099-13.282-51.472-20.299-79.125-20.299c-16.574,0-32.941,2.464-48.611,7.317
				c-5.456,1.693-11.25-1.354-12.926-6.828c-1.692-5.438,1.355-16.988,6.83-18.7c17.664-5.475,36.082-8.24,54.725-8.24
				c31.116,0,61.95,7.901,89.097,22.858C326.472,327.148,328.296,339.227,325.512,344.212z M344.645,287.529
				c-2.145,4.157-6.358,10.855-10.704,10.855c-1.9,0-3.781-0.415-5.55-1.374c-29.875-15.502-62.176-23.365-96.02-23.365
				c-18.643,0-37.154,2.446-55.026,7.375c-6.452,1.749-13.075-2.014-14.825-8.466c-1.73-6.452,2.051-17.421,8.485-19.17
				c19.94-5.437,40.597-8.202,61.366-8.202c37.229,0,74.252,9.03,107.1,26.111C345.396,274.342,347.71,281.604,344.645,287.529z
				 M352.64,242.135c-2.051,0-4.157-0.47-6.133-1.448c-35.649-17.777-74.046-26.77-114.099-26.77
				c-20.882,0-41.688,2.54-61.874,7.524c-7.412,1.825-14.881-2.671-16.706-10.064c-1.844-7.375,2.672-16.311,10.065-18.135
				c22.331-5.55,45.376-8.353,68.496-8.353c44.379,0,86.933,9.99,126.42,29.667c6.828,3.405,9.613,11.683,6.208,18.493
				C362.573,237.883,357.72,242.135,352.64,242.135z"/>
		</g>
	</g>
</g>
<circle fill="none" stroke="#8C8C8C" stroke-width="12" stroke-miterlimit="10" cx="256" cy="256" r="239.5"/>
</svg>
